<svg width="24" height="24" viewBox="0 0 24 24" fill="none" xmlns="http://www.w3.org/2000/svg">
<path d="M13.875 11.5L7.14583 18.2292C6.48875 18.8862 5.42791 18.8862 4.77083 18.2292C4.61476 18.0733 4.49095 17.8882 4.40647 17.6844C4.322 17.4807 4.27852 17.2622 4.27852 17.0417C4.27852 16.8211 4.322 16.6027 4.40647 16.3989C4.49095 16.1952 4.61476 16.01 4.77083 15.8542L11.5 9.125" stroke="black" stroke-width="1.5" stroke-linecap="round" stroke-linejoin="round"/>
<path d="M15.965 13.875L19.4167 10.4233" stroke="black" stroke-width="1.5" stroke-linecap="round" stroke-linejoin="round"/>
<path d="M18.5538 11.2625L17.5642 10.273C17.0892 9.79797 16.8279 9.16463 16.8279 8.49172V7.81088L14.6746 5.64172C14.2658 5.23054 13.7798 4.90417 13.2445 4.68136C12.7092 4.45855 12.1352 4.3437 11.5554 4.34338H9.125L9.85333 4.99255C10.3707 5.45124 10.7849 6.01436 11.0687 6.64479C11.3525 7.27523 11.4995 7.95867 11.5 8.65005V9.88505L13.0833 11.4684H15.0387L16.8279 12.9805" stroke="black" stroke-width="1.5" stroke-linecap="round" stroke-linejoin="round"/>
</svg>
